<svg width="130" height="63" viewBox="0 0 130 63" fill="none" xmlns="http://www.w3.org/2000/svg">
<g clip-path="url(#clip0_20515_253)">
<path d="M91.0997 40.6896C89.3426 38.0798 86.8182 36.8912 83.6663 37.2889C80.3819 37.7057 77.9783 39.5099 76.2522 42.2773C75.4318 43.594 74.8235 44.9932 74.6659 46.5559C74.5452 47.7518 75.5187 48.5191 76.6263 48.067C76.9974 47.9153 77.345 47.6516 77.6366 47.3689C79.0196 46.0212 80.3422 44.6088 81.759 43.2965C83.8151 41.3892 86.6591 42.2434 87.3837 44.9387C87.6194 45.8091 87.5929 45.8474 86.6812 45.9446C85.9993 46.0168 85.2614 46.1111 84.9447 46.7797C84.7165 47.2628 84.6944 47.8667 84.6767 48.4205C84.6531 49.2555 85.1568 49.6886 85.986 49.6238C86.3925 49.5928 86.7961 49.5427 87.3042 49.4927C86.5752 50.9714 85.6664 52.1172 84.0728 52.4177C83.441 52.5355 82.7267 52.4692 82.1037 52.294C81.5087 52.1246 80.7737 51.6975 80.8194 51.0509C80.8636 50.4102 81.597 50.1083 82.2539 49.9684C83.0713 49.7931 83.628 49.3012 83.8283 48.5015C84.0596 47.5751 84.0846 46.6339 83.3762 45.8681C82.6162 45.0477 81.3849 45.0624 80.5174 45.9093C79.457 46.9462 78.4157 48.0051 77.3995 49.0862C76.9532 49.5604 76.4701 49.8565 75.8177 49.961C75.0651 50.0803 74.6836 50.6695 74.9031 51.4C75.0945 52.0377 75.3567 52.6651 75.6733 53.2513C77.9459 57.4518 82.896 58.8583 87.0524 56.5107C89.5267 55.1115 91.1586 52.998 92.0703 50.3528C93.2249 47.0051 93.1307 43.7074 91.0982 40.6926L91.0997 40.6896ZM81.1729 38.4966C80.0992 38.9811 79.1389 39.6424 78.32 40.4613C77.8561 40.9253 77.4378 41.4408 77.0769 41.9945C77.0475 42.0402 76.993 42.0608 76.9429 42.0505C76.9282 42.049 76.9135 42.0417 76.9002 42.0343C76.8869 42.0255 76.8766 42.0152 76.8693 42.0034C76.8339 41.9607 76.8295 41.9003 76.8604 41.8532C76.94 41.7309 77.0224 41.6101 77.1093 41.4908C77.3023 41.183 77.5865 40.8413 77.9223 40.4996C77.9238 40.4967 77.9268 40.4937 77.9297 40.4923C77.9974 40.4186 78.0667 40.3465 78.1374 40.2772C78.9798 39.4363 79.9651 38.7573 81.0683 38.2595C81.1331 38.23 81.2111 38.2595 81.2406 38.3272C81.248 38.3434 81.2509 38.3611 81.2509 38.3788C81.2509 38.4274 81.2229 38.4745 81.1743 38.4966H81.1729Z" fill="#A01E5D"/>
<path d="M100.037 36.0738C100.025 36.0797 100.011 36.0871 99.9988 36.0944C100.015 36.0856 100.033 36.0753 100.05 36.0679C100.046 36.0694 100.041 36.0723 100.037 36.0738ZM98.5407 37.3772C98.4405 37.445 98.3389 37.5157 98.2388 37.5849C98.3433 37.5231 98.442 37.4465 98.5407 37.3772Z" fill="white"/>
<path d="M112.493 43.8901C112.402 47.8917 110.885 51.2056 107.606 53.5724C104.644 55.7109 100.531 55.9525 97.5482 53.5135C96.0091 52.2557 94.9944 50.6312 94.5746 48.6708C94.3846 47.7842 94.7837 47.1862 95.6925 47.0522C96.2757 46.9653 96.7073 46.6825 97.1034 46.2746C97.9562 45.3953 98.8649 44.5661 99.6809 43.6544C100.662 42.5586 101.937 42.432 103.235 42.5336C104.425 42.6264 105.223 44.0697 104.949 45.3982C104.706 46.5794 103.898 47.2879 102.669 47.3379C101.791 47.3733 101.123 47.7341 100.604 48.4352C100.41 48.6959 100.438 48.8711 100.637 49.1068C101.681 50.341 103.566 50.559 104.989 49.5634C106.459 48.5353 107.142 47.0522 107.365 45.3202C107.51 44.1905 107.437 43.0771 107.055 42.0034C106.214 39.6366 103.647 38.8265 101.691 40.4098C100.395 41.457 99.27 42.7162 98.0637 43.8753C97.7294 44.1979 97.398 44.5322 97.0239 44.8062C96.1829 45.4203 95.0798 45.2274 94.7337 44.3731C94.5879 44.0167 94.5746 43.544 94.6645 43.164C95.501 39.6557 97.4628 36.9354 100.758 35.4479C105.63 33.246 109.876 35.414 111.718 39.747C112.281 41.0696 112.493 42.4585 112.496 43.893L112.493 43.8901Z" fill="#A01E5D"/>
<path d="M98.5407 37.3772C98.4405 37.4479 98.3433 37.5245 98.2388 37.5849C98.3389 37.5157 98.4405 37.445 98.5407 37.3772Z" fill="white"/>
<path d="M128.857 36.607C127.308 33.6864 124.529 32.1752 121.307 32.542C119.375 32.76 117.447 33.0295 115.518 33.271C114.522 33.3962 114.313 33.626 114.315 34.626V43.5307H114.307V47.983C114.307 49.4676 114.307 50.9522 114.306 52.4354C114.306 53.6357 114.661 53.9362 115.849 53.7727C117.403 53.5606 118.957 53.3588 120.512 53.1629C123.185 52.8257 125.462 51.7461 127.18 49.6164C128.912 47.4675 129.835 45.0124 129.979 42.2582C130.083 40.2772 129.797 38.3773 128.856 36.6055L128.857 36.607ZM122.986 47.0802C122.023 47.9285 120.938 48.3056 119.684 48.3306C119.243 48.3395 119.076 48.1863 119.082 47.7297C119.104 46.1243 119.088 44.5175 119.091 42.9121C119.095 41.3406 119.104 39.7691 119.11 38.1976C119.11 38.0282 119.11 37.8589 119.11 37.6055C120.007 37.5437 120.82 37.4023 121.62 37.4494C123.112 37.5378 124.125 38.3832 124.635 39.7617C125.347 41.6867 125.163 45.1655 122.985 47.0802H122.986Z" fill="#A01E5D"/>
<path d="M119.101 7.01799C119.886 5.89128 120.668 4.76163 121.456 3.63639C121.981 2.8882 122.517 2.14737 123.035 1.39623C123.444 0.804159 123.923 0.402079 124.71 0.363786C125.549 0.322547 126.381 0.147281 127.215 0.0191456C127.646 -0.0471313 128.007 0.0412379 128.25 0.427117C128.499 0.823306 128.462 1.22686 128.203 1.59065C127.54 2.51558 126.858 3.42873 126.184 4.34482C124.825 6.19174 123.465 8.03865 122.062 9.94596C122.577 10.6441 123.085 11.3554 123.617 12.0491C125.044 13.9123 126.449 15.7916 127.925 17.6149C128.89 18.8064 128.617 19.7093 127.04 19.889C126.219 19.9818 125.395 20.0701 124.583 20.2218C123.886 20.3529 123.446 20.0819 123.048 19.5414C121.813 17.8594 120.549 16.1981 119.294 14.5308C119.228 14.4425 119.151 14.3629 118.995 14.1803C118.995 15.0213 118.995 15.7371 118.995 16.4544C118.994 17.5943 118.997 18.7328 118.983 19.8728C118.976 20.5326 118.699 20.833 118.035 20.9317C117.097 21.0716 116.158 21.2027 115.219 21.3353C114.59 21.4251 114.228 21.1085 114.211 20.4192C114.197 19.833 114.22 19.2453 114.22 18.6592C114.225 13.3423 114.228 8.0254 114.231 2.70852C114.231 1.81599 114.435 1.57592 115.312 1.46251C116.164 1.35352 117.016 1.22686 117.873 1.15027C118.723 1.07516 118.994 1.33879 118.998 2.20776C119.005 3.67469 118.995 5.14309 118.992 6.61002C118.992 6.72784 118.992 6.84714 118.992 6.96497C119.029 6.98264 119.066 6.99884 119.101 7.01652V7.01799Z" fill="white"/>
<path d="M65.9144 52.1673C65.9144 53.4428 65.9144 54.6652 65.9144 55.8891C65.9144 56.873 65.9173 57.8568 65.9144 58.8407C65.9114 59.443 65.7361 59.7199 65.1455 59.8186C64.1263 59.9895 63.0998 60.1191 62.0718 60.2177C61.5209 60.2708 61.2057 59.9467 61.1527 59.3944C61.1409 59.2751 61.1439 59.1529 61.1439 59.0321C61.1439 53.1467 61.1439 47.2599 61.1439 41.3745C61.1439 40.2537 61.3545 40.0548 62.4783 39.9164C65.7096 39.5172 68.9395 39.1019 72.1679 38.6807C73.2888 38.5349 73.6525 38.8368 73.6408 39.9827C73.6319 40.8104 73.6275 41.6396 73.5966 42.4673C73.5745 43.0667 73.3344 43.3569 72.7409 43.4438C71.2577 43.6603 69.7717 43.8503 68.2856 44.0462C67.6376 44.1316 66.988 44.2185 66.337 44.2774C66.0042 44.3083 65.9085 44.4615 65.9158 44.7767C65.932 45.4144 65.9114 46.0536 65.9173 46.6928C65.9217 47.2348 66.1102 47.4292 66.6449 47.3674C67.8246 47.2304 68.9999 47.064 70.1767 46.9093C70.6892 46.8431 71.2003 46.765 71.7143 46.7149C72.2976 46.659 72.7306 47.0198 72.7438 47.6089C72.7659 48.5574 72.7615 49.5074 72.7453 50.4574C72.7365 50.9979 72.4198 51.3219 71.8336 51.3985C70.1075 51.6238 68.3799 51.833 66.6537 52.051C66.4328 52.0789 66.2119 52.1202 65.9173 52.1673H65.9144Z" fill="#A01E5D"/>
<path d="M75.2305 23.1498C75.6517 23.6226 75.6782 23.8258 75.2629 24.2456C71.8843 27.664 66.9459 28.0101 63.4848 25.2515C61.5421 23.7036 60.4787 21.5989 60.249 19.1526C59.8572 14.9535 61.3551 11.4968 64.6851 8.90467C66.5423 7.45984 68.7044 6.79854 71.0698 6.96939C72.5441 7.07543 73.8858 7.60712 75.0714 8.49523C75.6871 8.95622 75.6974 9.1742 75.2511 9.77364C74.5501 10.7118 73.8505 11.653 73.1479 12.5911C73.036 12.7399 72.9064 12.8739 72.765 13.0374C70.4689 11.5292 68.3996 11.7119 66.7264 13.5426C66.099 14.2289 65.6807 15.0375 65.4524 15.9389C65.1255 17.2349 65.1844 18.5104 65.7735 19.7196C66.9857 22.1998 69.9475 22.73 72.0301 20.861C72.7046 20.2557 72.6958 20.2616 73.2805 20.9406C73.9226 21.6858 74.5766 22.4193 75.2305 23.1527V23.1498Z" fill="white"/>
<path d="M111.659 19.9243C109.074 22.5666 105.121 23.4311 101.899 21.9745C99.1208 20.7182 97.6097 18.4382 96.9985 15.5176C96.8586 14.846 96.8203 14.1538 96.7349 13.4704C96.8056 9.00924 99.4994 4.82201 103.477 3.24904C106.205 2.17094 108.875 2.29907 111.351 4.037C112.06 4.53481 112.089 4.76605 111.576 5.45385C110.865 6.40824 110.163 7.36852 109.462 8.33027C109.288 8.57034 109.148 8.70584 108.847 8.45693C107.36 7.22713 105.313 7.5541 104.009 8.54678C101.878 10.1669 101.202 13.4086 102.541 15.7238C103.698 17.7254 106.302 18.1967 108.186 16.743C108.226 16.7121 108.264 16.6767 108.305 16.6429C109.192 15.9079 109.185 15.9153 109.923 16.7828C110.492 17.4529 111.089 18.1024 111.675 18.7578C112.144 19.2807 112.142 19.4294 111.659 19.9243Z" fill="white"/>
<path d="M77.6945 15.9197C77.6945 13.0183 77.6945 10.1168 77.6945 7.21535C77.6945 6.20499 77.8845 6.01058 78.8669 5.89717C79.671 5.80439 80.4737 5.69982 81.272 5.56432C82.1719 5.41114 82.5283 5.66889 82.5371 6.6056C82.5548 8.55709 82.5474 10.5086 82.5489 12.4601C82.5489 14.7046 82.5489 16.9507 82.5489 19.1967C82.5489 20.2321 82.7448 20.4236 83.7831 20.2969C84.8259 20.1703 85.8642 20.0112 86.9011 19.8404C87.6257 19.7211 88.097 20.0525 88.1132 20.7859C88.1324 21.7359 88.1235 22.6859 88.1132 23.6358C88.1044 24.3398 87.8084 24.6801 87.1044 24.7743C84.9864 25.0615 82.8656 25.334 80.7462 25.6124C80.0967 25.6978 79.4472 25.7729 78.7991 25.8672C78.1143 25.9673 77.6989 25.6448 77.6871 24.9378C77.6709 24.0571 77.6901 23.1763 77.6916 22.2956C77.6916 20.1718 77.6916 18.0465 77.6916 15.9227H77.696L77.6945 15.9197Z" fill="white"/>
<path d="M90.2507 14.3659C90.2507 11.432 90.2507 8.49817 90.2507 5.56432C90.2507 4.69977 90.4496 4.46265 91.292 4.33156C92.1242 4.20196 92.9548 4.07235 93.7899 3.96189C94.6883 3.84259 95.0433 4.16072 95.0433 5.06503C95.0433 10.9504 95.0418 16.8343 95.0374 22.7197C95.0374 23.5283 94.7517 23.8347 93.949 23.9319C93.1271 24.032 92.3053 24.1322 91.4849 24.2426C90.5674 24.3663 90.2404 24.0909 90.2389 23.166C90.2375 20.2321 90.2389 17.2983 90.2389 14.3644H90.2507V14.3659Z" fill="white"/>
<path d="M107.089 29.6508C106.251 29.6508 105.796 29.2399 105.716 28.5609C105.631 27.8231 106.042 27.175 106.744 27.0542C107.693 26.8893 108.65 26.7729 109.606 26.6477C111.962 26.3414 114.32 26.0365 116.678 25.7434C119.346 25.4106 122.013 25.0939 124.68 24.764C125.347 24.6815 126.012 24.5902 126.676 24.4886C127.462 24.3663 128.106 24.7522 128.27 25.4592C128.433 26.175 128.004 26.9129 127.23 27.0454C125.77 27.2943 124.299 27.474 122.83 27.664C119.327 28.1161 115.821 28.5595 112.317 29.0028C110.522 29.2296 108.725 29.4491 107.089 29.6508Z" fill="#A01E5D"/>
<path d="M62.5938 35.2313C61.7587 35.2417 61.2579 34.8307 61.1681 34.1415C61.0753 33.4286 61.4553 32.782 62.1549 32.6642C63.4274 32.4477 64.7132 32.3004 65.9945 32.134C68.0948 31.863 70.195 31.5994 72.2953 31.3357C74.3116 31.0824 76.3278 30.8335 78.3427 30.5758C79.2131 30.4653 80.0821 30.3504 80.9496 30.2179C81.8067 30.0883 82.3767 30.4668 82.5284 31.293C82.6639 32.0294 82.1764 32.7202 81.3678 32.8468C80.2956 33.0147 79.2146 33.134 78.138 33.271C74.1054 33.7865 70.0728 34.302 66.0387 34.8145C64.8605 34.9648 63.6793 35.1003 62.5938 35.2299V35.2313Z" fill="#A01E5D"/>
<path d="M95.8576 33.0943C94.3671 33.0766 93.1829 32.0545 92.9988 30.4962C92.7573 28.4549 94.2169 26.4136 96.1374 26.1764C97.865 25.9629 99.3158 27.0542 99.5146 28.8025C99.7723 31.0574 98.0138 33.1193 95.8576 33.0943ZM94.9032 29.7539C94.8988 30.4903 95.4084 31.078 96.0653 31.0912C96.8355 31.106 97.6029 30.3239 97.6191 29.5065C97.6323 28.8157 97.0462 28.1986 96.3701 28.1898C95.5925 28.181 94.9091 28.9085 94.9047 29.7539H94.9032Z" fill="#A01E5D"/>
<path d="M90.3733 28.9542C90.3733 30.2841 90.3777 31.5935 90.3718 32.9028C90.3689 33.4595 90.0949 33.813 89.6148 33.925C88.9667 34.0737 88.5116 33.7571 88.4954 33.0913C88.4689 32.0044 88.4837 30.9175 88.4822 29.8305C88.4822 29.6449 88.4822 29.4594 88.4822 29.2149C88.0963 29.262 87.7782 29.3077 87.4571 29.3371C86.893 29.3887 86.5263 29.156 86.4364 28.6994C86.3098 28.0661 86.5867 27.5344 87.1758 27.421C87.9358 27.2752 88.7075 27.1956 89.4749 27.0896C90.0375 27.0115 90.6016 26.9364 91.1657 26.8642C91.7739 26.7862 92.1878 27.0395 92.3145 27.5653C92.4396 28.0823 92.1407 28.5712 91.5722 28.7436C91.3777 28.8025 91.1671 28.804 90.9654 28.8378C90.7827 28.8688 90.6001 28.9115 90.3762 28.9571L90.3733 28.9542Z" fill="#A01E5D"/>
<path d="M100.527 36.0193C100.527 36.0664 100.501 36.1121 100.455 36.1342C100.069 36.3257 99.6967 36.5451 99.3432 36.7896C99.0074 37.0223 98.6849 37.2786 98.383 37.554C98.3299 37.6011 98.2504 37.5982 98.2018 37.5481C98.1517 37.4951 98.1547 37.4111 98.2077 37.3625C98.517 37.0797 98.8498 36.8146 99.196 36.576C99.5597 36.3257 99.9442 36.0988 100.34 35.903C100.405 35.872 100.483 35.8985 100.514 35.9648C100.523 35.984 100.526 36.0016 100.526 36.0208L100.527 36.0193Z" fill="white"/>
<path d="M124.224 46.3099C124.224 46.3305 124.218 46.3497 124.205 46.3673C124.025 46.6221 123.826 46.8652 123.611 47.0905C123.405 47.3055 123.183 47.5088 122.946 47.6914C122.9 47.7268 122.834 47.7179 122.798 47.6708C122.765 47.6251 122.773 47.5618 122.818 47.5279C123.046 47.3512 123.262 47.1553 123.461 46.9476C123.669 46.7297 123.862 46.4955 124.034 46.2495C124.067 46.2024 124.13 46.1906 124.176 46.223C124.205 46.2422 124.223 46.2775 124.223 46.3099H124.224Z" fill="white"/>
<path d="M85.112 47.4248C85.0516 47.4116 85.0178 47.3497 85.0354 47.2908C85.0811 47.142 85.1488 47.0066 85.2387 46.8858C85.4537 46.5971 85.7321 46.4837 85.956 46.3924C86.2947 46.2539 86.6585 46.1832 87.0414 46.1847C87.0989 46.1847 87.146 46.2348 87.143 46.2922C87.1416 46.3482 87.0944 46.3924 87.0385 46.3909C86.6835 46.3909 86.3463 46.4557 86.034 46.5839C85.8234 46.6693 85.5848 46.768 85.4051 47.0095C85.3285 47.1126 85.2711 47.2275 85.2328 47.3541C85.2181 47.4057 85.1651 47.4351 85.112 47.4234V47.4248Z" fill="white"/>
<path d="M66.4553 8.39066C66.4553 8.43779 66.4288 8.48345 66.3831 8.50554C65.6496 8.86785 64.9692 9.31559 64.3565 9.84139C63.9647 10.1772 62.9617 11.1257 62.1031 12.6574C61.7688 13.2569 61.486 13.8887 61.2665 14.5397C61.2444 14.6074 61.1723 14.6428 61.1045 14.6222C61.0353 14.6001 60.9985 14.5264 61.0206 14.4572C61.2459 13.7915 61.5331 13.1435 61.8763 12.5308C62.7555 10.9622 63.7836 9.98867 64.1857 9.64403C64.8131 9.10498 65.5127 8.64398 66.2667 8.27283C66.3316 8.24043 66.4096 8.26841 66.4405 8.33469C66.4494 8.35236 66.4523 8.37151 66.4523 8.39066H66.4553Z" fill="white"/>
<path d="M102.846 4.12832C102.846 4.17545 102.821 4.2211 102.775 4.24467C102.046 4.61729 101.371 5.07534 100.767 5.6085C100.38 5.9502 99.3904 6.91195 98.5538 8.45694C98.2268 9.06079 97.9544 9.69705 97.7437 10.351C97.7216 10.4187 97.6509 10.4556 97.5832 10.4349C97.514 10.4128 97.4757 10.3407 97.4963 10.2715C97.7128 9.60132 97.9912 8.95033 98.3255 8.33322C99.1827 6.75141 100.197 5.76462 100.595 5.41409C101.215 4.8662 101.909 4.3949 102.657 4.01344C102.72 3.98103 102.8 4.00754 102.832 4.07235C102.841 4.09002 102.846 4.10917 102.846 4.12832Z" fill="white"/>
<path d="M39.3495 43.9372L44.3482 45.9653C39.837 52.6047 32.6496 57.415 24.5653 58.3826C10.955 60.0116 -0.0411234 50.1363 0.000115617 36.3286C0.0428274 22.518 11.1081 10.0034 24.7185 8.37446C32.0973 7.49077 38.7103 9.99014 43.2112 14.6649C44.2775 15.7754 45.2275 17.0052 46.039 18.3455C46.0493 18.3617 46.0596 18.3779 46.07 18.3955L40.9696 20.9538L35.2418 23.8273L30.0928 26.4106C29.8571 26.2236 29.6097 26.0513 29.349 25.8981C28.3843 25.3207 27.2664 24.9702 26.0528 24.9054C26.0469 24.9054 26.044 24.9025 26.0381 24.9054C24.8466 24.8067 23.6256 25.0041 22.4754 25.468C22.468 25.468 22.4636 25.471 22.4606 25.471C20.8626 26.1175 19.1409 27.2325 18.026 28.776C17.9361 28.9026 17.8522 29.0264 17.7697 29.153C16.1982 31.2194 15.4927 33.7733 15.4854 36.4273C15.475 39.8192 17.0053 42.6603 19.4089 44.3481C19.4089 44.3481 19.4193 44.3569 19.4384 44.3731C20.1115 44.8386 20.8464 45.2156 21.6373 45.491C21.6624 45.4984 21.6874 45.5087 21.7124 45.5161C22.4106 45.7561 23.1499 45.9122 23.9217 45.98C23.929 45.9829 23.9349 45.9859 23.9423 45.9844C24.9129 46.0934 26.047 46.1125 27.3533 45.9726C23.6242 47.2186 19.5872 46.8696 16.3911 44.6603C10.7061 40.7294 9.79585 32.3947 14.3528 26.0778C18.459 20.3897 25.6066 18.2424 31.1385 20.7241C31.1856 20.7447 31.2313 20.7668 31.2784 20.7874L31.3226 20.7638L36.4097 18.0789L37.7809 17.3911C37.7721 17.3808 37.7632 17.3734 37.7544 17.369L37.7794 17.3557C37.4245 17.0626 37.0607 16.7872 36.6807 16.5236C32.9957 13.9756 28.5449 13.1287 24.1514 13.7944C23.9688 13.8195 23.7862 13.8504 23.6035 13.8828C23.4828 13.9049 23.362 13.927 23.2412 13.9506C23.0733 13.9844 22.9069 14.0183 22.7405 14.0566C22.6138 14.0846 22.4901 14.1126 22.3634 14.145C22.3575 14.145 22.3516 14.145 22.3458 14.1494C22.2824 14.1641 22.2176 14.1803 22.1543 14.1965C22.1086 14.2068 22.0644 14.2201 22.0188 14.2319C21.8744 14.2687 21.7331 14.3085 21.5902 14.3482C21.5784 14.3482 21.5681 14.3526 21.5563 14.3571C21.2132 14.4543 20.8729 14.5618 20.5371 14.6796C20.1026 14.8254 19.6755 14.9889 19.2528 15.1686C19.0835 15.2407 18.9141 15.3144 18.7447 15.3895C18.1512 15.6546 17.5694 15.9492 17.0024 16.2688C16.9214 16.3144 16.8389 16.3616 16.7593 16.4087C16.6695 16.4602 16.5826 16.5118 16.4942 16.5648C16.4206 16.6075 16.347 16.6517 16.2748 16.6974C16.1614 16.7666 16.048 16.8358 15.936 16.908C15.6665 17.0788 15.4014 17.2556 15.1378 17.4426C15.0361 17.5133 14.9345 17.5855 14.8344 17.6606C14.746 17.7239 14.6591 17.7887 14.5737 17.8535C13.3763 18.7475 12.2451 19.777 11.2127 20.9361C11.1391 21.0157 11.0669 21.0996 10.9962 21.1806C10.9152 21.2734 10.8342 21.3692 10.7532 21.4634C10.6589 21.5754 10.5647 21.6888 10.4719 21.8022C10.3658 21.9288 10.2642 22.0584 10.1641 22.1895C10.0624 22.3191 9.96375 22.4502 9.86507 22.5828C9.86212 22.5872 9.85771 22.5931 9.85476 22.596C9.7767 22.7006 9.70011 22.8066 9.625 22.9127C9.56019 23.004 9.49539 23.0953 9.43206 23.1866C9.4247 23.1969 9.41733 23.2072 9.41144 23.2175C9.32749 23.3398 9.24501 23.4606 9.16401 23.5828C9.09184 23.6903 9.02114 23.7993 8.95192 23.9083C8.91657 23.9598 8.8827 24.0143 8.85177 24.0659C8.80317 24.1425 8.75456 24.222 8.70743 24.2986C8.68681 24.3295 8.66767 24.3619 8.64999 24.3943C8.58519 24.5018 8.52186 24.6079 8.45853 24.7154C8.3083 24.9673 8.16691 25.225 8.02846 25.4827C8.02552 25.4886 8.0211 25.4931 8.01962 25.4975C7.90769 25.7096 7.79723 25.9231 7.69266 26.1381C7.68971 26.144 7.68529 26.1514 7.68235 26.1573C7.54096 26.443 7.40693 26.7317 7.2788 27.0248C7.1919 27.2221 7.10942 27.4195 7.02842 27.6183C7.02694 27.6228 7.02547 27.6257 7.02253 27.6316C6.89144 27.9527 6.77067 28.2767 6.65579 28.6022C6.6175 28.7141 6.57773 28.8246 6.54239 28.935C6.09907 30.2503 5.78388 31.6112 5.61009 33.0015C5.5497 33.4728 5.50552 33.9441 5.48048 34.4213C5.47459 34.5097 5.47017 34.5966 5.46723 34.6864C5.46134 34.7939 5.45839 34.9 5.45544 35.0075C5.44955 35.171 5.44808 35.3359 5.44661 35.4979C5.44661 35.7365 5.44808 35.9736 5.45692 36.2064C5.46134 36.3242 5.46723 36.442 5.47165 36.5584C5.48196 36.7631 5.49521 36.9678 5.51141 37.1681C5.51877 37.2388 5.52319 37.308 5.53056 37.3787C5.53792 37.4509 5.54381 37.5231 5.55265 37.5923C5.56443 37.7086 5.57622 37.8235 5.59242 37.9399C5.60567 38.0503 5.6204 38.1578 5.63513 38.2668C5.64544 38.3361 5.65575 38.4067 5.66606 38.476C5.68079 38.5746 5.69699 38.6733 5.71466 38.772C5.72939 38.8648 5.74559 38.9576 5.76326 39.0504C5.78683 39.18 5.81334 39.3111 5.84132 39.4392C5.85752 39.5202 5.87372 39.5997 5.89287 39.6822C5.89876 39.7117 5.90465 39.7426 5.91349 39.7735C5.93117 39.8545 5.95031 39.9355 5.97093 40.0165C5.99302 40.1182 6.01953 40.2183 6.04752 40.3199C6.07108 40.4216 6.09907 40.5217 6.12852 40.6233C6.211 40.9238 6.30379 41.2198 6.40247 41.5129C6.46727 41.7088 6.53649 41.9032 6.60866 42.0932C6.61161 42.105 6.61603 42.1168 6.62045 42.1271C6.76036 42.4968 6.91206 42.8606 7.07702 43.2155C7.11826 43.3083 7.16097 43.3996 7.20515 43.4895C7.24934 43.5808 7.29205 43.6706 7.33918 43.759C7.38337 43.8503 7.42755 43.9387 7.47615 44.027C7.52181 44.1154 7.56894 44.2038 7.61902 44.2907C7.66615 44.379 7.71475 44.4659 7.76483 44.5514C7.9504 44.8783 8.14923 45.1994 8.35837 45.5116C8.42171 45.6059 8.48356 45.6987 8.54837 45.7915C8.68534 45.9903 8.8282 46.1862 8.97549 46.3762C9.04323 46.4646 9.11098 46.5514 9.18168 46.6369C9.20377 46.6678 9.22881 46.6987 9.25385 46.7282C9.44237 46.9609 9.63531 47.1892 9.83561 47.4101C9.90189 47.4837 9.96964 47.5574 10.0374 47.6296C10.2392 47.8475 10.4498 48.0581 10.6648 48.2629C10.9078 48.4926 11.1553 48.718 11.4115 48.9315C11.497 49.0052 11.5824 49.0759 11.6693 49.1451C11.7547 49.2173 11.8416 49.2865 11.9314 49.3513C12.0183 49.4205 12.1082 49.4883 12.198 49.5531C12.2864 49.6208 12.3777 49.6856 12.469 49.7504C12.5235 49.7902 12.578 49.8285 12.631 49.8653C12.6693 49.8903 12.7061 49.9168 12.7444 49.9404C12.8549 50.0185 12.9668 50.0921 13.0802 50.1628C13.0994 50.1746 13.1185 50.1878 13.1391 50.2026C13.2511 50.2747 13.363 50.3425 13.4764 50.4102C13.4779 50.4117 13.4823 50.4132 13.4867 50.4161C13.606 50.4868 13.7239 50.5575 13.8461 50.6253C13.8535 50.6312 13.8623 50.6356 13.8726 50.6415C13.9359 50.6768 13.9978 50.7122 14.0611 50.746C14.26 50.855 14.4632 50.9611 14.6679 51.0627C14.7622 51.1098 14.8579 51.1555 14.9551 51.2011C15.1451 51.2895 15.3395 51.3749 15.534 51.4589C15.6209 51.4957 15.7107 51.534 15.7991 51.5679C18.428 52.6342 21.4135 53.0569 24.583 52.6769C28.1929 52.2454 31.5744 50.83 34.4641 48.7239C34.5495 48.662 34.6364 48.5987 34.7204 48.5339C34.794 48.4823 34.8662 48.4278 34.9398 48.3704C36.5644 47.1347 38.0563 45.6516 39.3495 43.9342V43.9372Z" fill="white"/>
<path d="M46.584 21.6107L46.5177 43.27L46.4985 43.2626L46.0714 43.0888L41.161 41.0976L35.8766 38.9546L31.3093 37.1004L23.0586 33.7541L32.1312 29.0705L36.9134 26.6021L42.4542 23.7419L46.584 21.6107Z" fill="#A01E5D"/>
<path d="M55.1851 4.80729H52.9155V62.1913H55.1851V4.80729Z" fill="white"/>
</g>
<defs>
<clipPath id="clip0_20515_253">
<rect width="130" height="62.1928" fill="white"/>
</clipPath>
</defs>
</svg>
